<svg width="23" height="23" viewBox="0 0 23 23" fill="none" xmlns="http://www.w3.org/2000/svg">
<path d="M11.7038 0C5.47515 0 0.406932 5.02938 0.406932 11.2118C0.406932 13.2116 0.942354 15.1688 1.9557 16.8819L0.0156336 22.6057C-0.0202106 22.7125 0.00667254 22.8305 0.0850816 22.9104C0.141835 22.9686 0.219497 23 0.298653 23C0.32927 23 0.35914 22.9955 0.38901 22.9858L6.35706 21.0891C7.99021 21.9613 9.83619 22.422 11.7038 22.422C17.9325 22.422 23 17.3926 23 11.211C23 5.02938 17.9325 0 11.7038 0Z" fill="#FF6831"/>
<path d="M17.0184 13.216C16.9736 13.1944 15.2972 12.3685 14.9992 12.2617C14.8775 12.2176 14.7475 12.1751 14.6087 12.1751C14.3824 12.1751 14.192 12.2878 14.0441 12.5096C13.8768 12.7583 13.3698 13.3512 13.213 13.5282C13.1928 13.5513 13.1644 13.5797 13.148 13.5797C13.1331 13.5797 12.8732 13.4729 12.7948 13.4386C10.9959 12.6575 9.6308 10.7786 9.44336 10.4613C9.41648 10.4157 9.41573 10.3948 9.41498 10.3948C9.4217 10.3709 9.48219 10.3104 9.51356 10.2791C9.60466 10.1887 9.70398 10.07 9.79956 9.95422C9.84511 9.89971 9.88992 9.84519 9.93472 9.79367C10.0736 9.63237 10.1356 9.50692 10.2073 9.3613L10.2446 9.28588C10.4194 8.93789 10.27 8.64442 10.2222 8.54958C10.1826 8.47042 9.47472 6.76185 9.3993 6.58188C9.21859 6.14877 8.97888 5.94714 8.64657 5.94714C8.61596 5.94714 8.64657 5.94714 8.51739 5.95237C8.35982 5.95909 7.50255 6.07185 7.1232 6.31081C6.7207 6.56396 6.04041 7.3727 6.04041 8.79377C6.04041 10.073 6.85213 11.2805 7.20086 11.7397C7.20982 11.7509 7.2255 11.7748 7.24865 11.8084C8.5831 13.7574 10.2469 15.2024 11.9338 15.876C13.5572 16.5249 14.3264 16.5996 14.764 16.5996C14.9477 16.5996 15.0948 16.5854 15.2247 16.5727L15.3069 16.5652C15.8677 16.5152 17.1006 15.8767 17.3806 15.0979C17.6016 14.484 17.6599 13.8134 17.5128 13.57C17.412 13.4042 17.2387 13.3213 17.0192 13.216H17.0184Z" fill="white"/>
</svg>
